# xmcd
#
# Track frame offsets:
#	150
#	14474
#	25432
#	35962
#	51374
#
# Disc length: 804 seconds
#
# Revision: 0
# Processed by: cddbd v1.5.1PL0 Copyright (c) Steve Scherf et al.
# Submitted via: dBpowerAMP V4.0
#
DISCID=43032205
DTITLE=Howlin` chihuahua - Howlin` chihuahua
DYEAR=1900
DGENRE=
TTITLE0=01 Brunette girl
TTITLE1=02 Midnite in the alley
TTITLE2=03 Rooster with no farm
TTITLE3=04 Rotten fruit Macedonia
TTITLE4=05 Cotton moon
EXTD=
EXTT0=
EXTT1=
EXTT2=
EXTT3=
EXTT4=
PLAYORDER=
